<?xml version="1.0" encoding="UTF-8" standalone="no"?>
<svg
   xmlns:dc="http://purl.org/dc/elements/1.1/"
   xmlns:cc="http://creativecommons.org/ns#"
   xmlns:rdf="http://www.w3.org/1999/02/22-rdf-syntax-ns#"
   xmlns:svg="http://www.w3.org/2000/svg"
   xmlns="http://www.w3.org/2000/svg"
   xmlns:sodipodi="http://sodipodi.sourceforge.net/DTD/sodipodi-0.dtd"
   xmlns:inkscape="http://www.inkscape.org/namespaces/inkscape"
   version="1.1"
   id="svg10"
   width="662.00085"
   height="698.5"
   viewBox="0 0 662.00085 698.5"
   sodipodi:docname="icon.svg"
   inkscape:version="1.0.1 (3bc2e813f5, 2020-09-07)">
  <metadata
     id="metadata16">
    <rdf:RDF>
      <cc:Work
         rdf:about="">
        <dc:format>image/svg+xml</dc:format>
        <dc:type
           rdf:resource="http://purl.org/dc/dcmitype/StillImage" />
        <dc:title></dc:title>
      </cc:Work>
    </rdf:RDF>
  </metadata>
  <defs
     id="defs14" />
  <sodipodi:namedview
     pagecolor="#ffffff"
     bordercolor="#666666"
     borderopacity="1"
     objecttolerance="10"
     gridtolerance="10"
     guidetolerance="10"
     inkscape:pageopacity="0"
     inkscape:pageshadow="2"
     inkscape:window-width="1920"
     inkscape:window-height="1017"
     id="namedview12"
     showgrid="false"
     fit-margin-top="0"
     fit-margin-left="0"
     fit-margin-right="0"
     fit-margin-bottom="0"
     inkscape:zoom="0.54002541"
     inkscape:cx="526.61217"
     inkscape:cy="698.06175"
     inkscape:window-x="-8"
     inkscape:window-y="-8"
     inkscape:window-maximized="1"
     inkscape:current-layer="g18" />
  <g
     inkscape:groupmode="layer"
     inkscape:label="Image"
     id="g18"
     transform="translate(-40.87129,-48.428186)">
    <path
       style="fill:#000000"
       d="m 375.37129,746.22041 c -3.575,-0.17732 -7.4,-0.7201 -8.5,-1.20616 l -2,-0.88375 -21.995,-1.68205 -21.99501,-1.68204 -1.00499,-0.79935 c -0.55275,-0.43965 -5.055,-1.38226 -10.005,-2.0947 -4.95,-0.71243 -9.225,-1.59386 -9.5,-1.95872 -0.275,-0.36486 -4.4375,-1.48118 -9.25,-2.48071 -4.8125,-0.99953 -8.75,-2.14691 -8.75,-2.54974 0,-0.40283 -1.6875,-1.0363 -3.75,-1.40771 -2.0625,-0.37141 -5.3429,-1.48996 -7.28977,-2.48566 -1.94687,-0.9957 -5.09687,-2.13608 -7,-2.53416 -1.90313,-0.39809 -4.36023,-1.28639 -5.46023,-1.97401 -1.1,-0.68761 -3.8,-1.81818 -6,-2.51235 -2.2,-0.69418 -6.025,-2.16127 -8.5,-3.26021 -2.475,-1.09893 -6.3,-2.78361 -8.5,-3.74374 -11.34185,-4.94982 -18.54165,-8.83829 -29.5,-15.93238 -3.025,-1.95829 -6.56029,-4.13109 -7.85619,-4.82844 -1.2959,-0.69736 -4.50836,-3.06981 -7.13878,-5.27213 -2.63042,-2.20231 -5.26681,-4.00421 -5.85863,-4.00421 -0.59182,0 -1.5577,-0.9 -2.1464,-2 -0.5887,-1.1 -1.55593,-2 -2.1494,-2 -0.59346,0 -3.67623,-2.25 -6.8506,-5 -3.17437,-2.75 -6.03297,-5 -6.35245,-5 -0.31949,0 -2.15588,-1.575 -4.08088,-3.5 -1.925,-1.925 -3.77559,-3.5 -4.11242,-3.5 -0.76682,0 -14.23091,-11.53513 -21.11281,-18.08804 -2.83721,-2.70158 -5.52953,-4.91196 -5.98293,-4.91196 -1.04336,0 -21.35851,-20.196 -21.35851,-21.23324 0,-0.42294 -1.8,-2.51582 -4,-4.65085 -2.2,-2.13503 -4,-4.18478 -4,-4.555 0,-0.37022 -2.25,-3.45387 -5,-6.85255 -2.75,-3.39868 -5,-6.72607 -5,-7.3942 0,-0.66813 -0.5625,-1.57464 -1.25,-2.01447 -1.5893,-1.01676 -2.94263,-3.45568 -12.09637,-21.79969 -4.11678,-8.25 -8.04422,-16.9125 -8.72764,-19.25 -0.68341,-2.3375 -1.57126,-4.25 -1.97299,-4.25 -0.40173,0 -1.03735,-1.63604 -1.41247,-3.63565 -0.37513,-1.99961 -1.50602,-5.17299 -2.51309,-7.05195 -1.00706,-1.87897 -2.40778,-6.31793 -3.11269,-9.86436 -0.70492,-3.54642 -1.58763,-6.44804 -1.96157,-6.44804 -0.37394,0 -1.26725,-2.8125 -1.98513,-6.25 -0.71787,-3.4375 -1.60942,-6.475 -1.98121,-6.75 -0.3718,-0.275 -1.48361,-4.775 -2.4707,-10 -0.98709,-5.225 -2.13454,-9.95 -2.54988,-10.5 -0.41535,-0.55 -1.34168,-5.275 -2.05852,-10.5 -0.71685,-5.225 -1.57997,-9.725 -1.91807,-10 -0.7653,-0.62249 -2.72769,-15.52671 -3.62082,-27.5 l -0.67134,-9 -1.09876,-0.71384 -1.09875,-0.71384 0.0227,-32.00889 0.0227,-32.00888 1.26891,-1.26892 1.26891,-1.26891 0.70836,1.07578 0.70836,1.07577 3.95787,-0.0841 3.95788,-0.0841 0.92667,-3.21474 0.92668,-3.21475 -3.16933,-3.78525 c -1.74313,-2.08189 -3.71618,-4.45168 -4.38455,-5.26619 l -1.21522,-1.48101 0.0368,-8.3283 0.0368,-8.3283 1.08754,-0.69077 c 0.59814,-0.37992 1.41653,-2.26576 1.81864,-4.19076 0.40211,-1.925 1.33073,-4.85 2.06359,-6.5 0.73287,-1.65 2.02833,-5.42038 2.87882,-8.37861 0.85048,-2.95824 1.93358,-5.88324 2.40687,-6.5 0.47329,-0.61677 1.46808,-3.37139 2.21063,-6.12139 0.74256,-2.75 1.93461,-6.125 2.64901,-7.5 0.71441,-1.375 1.30169,-3.18737 1.30508,-4.02749 0.003,-0.84013 0.66527,-2.46851 1.47085,-3.61864 l 1.4647,-2.09115 -0.6072,-0.60719 -0.60719,-0.6072 1.0914,-1.31506 c 0.60027,-0.72328 1.57997,-3.54666 2.17711,-6.27417 0.59714,-2.7275 1.70623,-6.3091 2.46464,-7.9591 0.75841,-1.65 1.69476,-5.14303 2.08078,-7.7623 0.38601,-2.61926 1.08027,-4.99617 1.54278,-5.28202 l 0.84094,-0.51973 -0.56331,-1.46798 -0.56332,-1.46797 h 0.91794 0.91794 l 1.29074,-5.03621 1.29074,-5.03622 6.14831,-6.13044 c 3.38157,-3.37175 7.08315,-6.97572 8.22575,-8.00884 1.14259,-1.03312 3.16759,-3.69951 4.5,-5.92531 1.33241,-2.2258 5.01548,-7.38053 8.1846,-11.45495 3.16911,-4.07441 5.41911,-7.41492 5,-7.42334 -0.41912,-0.008 -0.30948,-0.34592 0.24365,-0.75 0.55313,-0.40408 2.34034,-2.53469 3.97157,-4.73469 1.63124,-2.2 6.69118,-8.13614 11.24431,-13.19143 4.55314,-5.05529 8.27843,-9.51066 8.27843,-9.90082 0,-0.80037 42.85614,-43.40775 43.66118,-43.40775 0.28499,0 3.29032,-2.47298 6.67849,-5.49551 3.38818,-3.02252 6.61458,-5.49752 7.16978,-5.5 0.5552,-0.002 1.57152,-0.90449 2.25848,-2.00449 0.68696,-1.1 1.69416,-2 2.23823,-2 0.54407,0 3.31908,-1.67385 6.1667,-3.71966 5.91241,-4.24764 9.92096,-6.67096 14.57714,-8.812444 1.7875,-0.82211 3.25,-1.9387 3.25,-2.48132 0,-0.54262 0.50716,-0.98658 1.12703,-0.98658 0.61986,0 6.80736,-2.75581 13.75,-6.124019 6.94263,-3.36821 14.08547,-6.74321 15.87297,-7.5 1.7875,-0.75679 4.7125,-2.016216 6.5,-2.798726 1.7875,-0.78251 5.725,-2.192053 8.75,-3.132318 3.025,-0.940265 5.95,-2.044904 6.5,-2.454755 0.55,-0.40985 4.2625,-1.574977 8.25,-2.58917 3.9875,-1.014194 7.25,-2.143365 7.25,-2.509269 0,-0.365905 2.925,-1.217189 6.5,-1.891743 3.57512,-0.674554 6.50012,-1.569682 6.50012,-1.989173 v -0.762712 l 9,-1.748115 9,-1.748115 V 58.92569 58.171309 l 7.67083,-1.140894 c 4.21896,-0.627492 8.15646,-1.536244 8.75,-2.019448 l 1.07917,-0.878554 14,-1.700241 14,-1.700241 2.40165,-1.151873 2.40165,-1.151872 h 37.79844 37.79843 l 1.24992,1.25 1.24991,1.25 3.05,-0.003 c 5.15515,-0.0051 28.9568,3.048823 30.5832,3.924089 0.84326,0.45381 4.89326,1.383769 9,2.066576 4.10674,0.682807 7.9168,1.592803 8.4668,2.022214 0.55,0.429411 4.72185,1.534403 9.27078,2.455537 4.54893,0.921135 9.49893,2.31548 11,3.098545 1.50107,0.783065 3.43071,1.426527 4.28809,1.429915 0.85738,0.0034 2.43238,0.666849 3.5,1.474358 1.06762,0.807508 2.49526,1.482508 3.17252,1.5 2.03526,0.05253 18.26861,8.171447 18.26861,9.136792 0,0.492236 0.63874,0.894974 1.41941,0.894974 h 1.41942 l 5.47079,5 c 3.00894,2.75 5.95865,5 6.55491,5 0.59626,0 1.78222,1.35 2.63547,3 l 1.55136,3 h 1.47432 1.47432 v 1.10564 c 0,0.60811 1.125,2.44263 2.5,4.076734 1.375,1.63409 2.5,3.59572 2.5,4.35917 v 1.38809 l -1.95518,1.04639 -1.95519,1.04638 -12.29481,-1.07855 -12.29482,-1.07855 -8.15897,-1.89228 -8.15898,-1.89228 -9.0533,-4.076484 -9.0533,-4.07648 -9.28773,-2.06225 -9.28772,-2.062252 -22,0.53565 -22,0.535652 -15,2.03253 c -25.51053,3.45673 -46.22089,8.099914 -67.55808,15.146264 -16.41964,5.42239 -26.61864,9.86341 -42.89819,18.67943 -7.40095,4.0079 -15.0374,7.72367 -16.96989,8.25726 l -3.51362,0.97016 -1.03011,-1.05608 -1.03011,-1.05607 6.41106,-6.0504 6.41105,-6.05041 8.58895,-5.54777 c 19.97588,-12.90282 38.35336,-19.352694 74.58894,-26.178199 8.8,-1.657609 22.75,-4.470441 31,-6.250738 l 15,-3.236905 30,0.255554 c 16.5,0.140554 31.92121,-0.0084 34.26935,-0.331002 l 4.26936,-0.586555 -0.5872,-0.950114 c -1.77866,-2.877925 -8.24882,-4.865529 -43.74524,-13.438337 l -10.79373,-2.606815 -7.20627,1.058772 c -6.08009,0.893309 -23.86761,2.769891 -54.51319,5.751139 l -6.30692,0.613546 -3.71565,2.60008 c -6.97554,4.881232 -18.6312,9.53148 -29.17051,11.638135 -5.67435,1.134219 -27.42747,8.759935 -42.5,14.898695 -54.63987,22.253764 -105.2712,57.111754 -135.85114,93.528974 -3.90982,4.65614 -10.74755,13.91457 -15.19496,20.57428 l -8.08621,12.10856 -7.16199,14.42572 -7.16199,14.42572 -10.88406,28.5 c -16.88694,44.21861 -22.55839,63.05505 -25.30802,84.05482 l -1.23671,9.44518 0.0775,19.5 0.0775,19.5 1.59316,12 c 3.61463,27.22625 5.72223,42.3052 6.63912,47.5 3.00162,17.00632 7.36308,38.39827 9.0728,44.5 8.95027,31.94216 13.50224,46.03646 16.79419,52 3.61507,6.54886 5.68034,12.32469 7.68779,21.5 l 1.64092,7.5 5.65108,5.24461 c 3.10809,2.88454 18.20567,15.59704 33.55017,28.25 l 27.89902,23.00539 h 4.35092 4.35091 v -1.30863 -1.30864 l -10.75,-9.58796 c -5.9125,-5.27337 -21.33831,-20.09699 -34.27959,-32.94136 l -23.52959,-23.35341 -2.68338,-5.48703 -2.68338,-5.48703 0.79575,-0.79575 0.79576,-0.79576 1.63983,0.62927 c 0.9019,0.34609 6.97107,6.54834 13.48704,13.78278 25.59261,28.41454 58.25469,56.95205 85.90528,75.05718 l 10.19772,6.67728 14.80228,7.0355 c 8.14125,3.86952 20.87728,10.0908 28.30228,13.82507 l 13.5,6.78957 8,2.62209 c 4.4,1.44214 13.625,3.76185 20.5,5.1549 6.875,1.39306 15.65,3.40647 19.5,4.47427 3.85,1.06779 12.4,3.11335 19,4.54568 l 12,2.60423 13,0.56716 13,0.56715 9,-1.17893 c 4.95,-0.64841 12.6,-1.86314 17,-2.6994 24.421,-4.64143 38.47728,-7.66198 42.29393,-9.08854 l 4.29393,-1.60496 -0.30901,-1.59736 -0.30901,-1.59737 -14.48492,-0.10199 -14.48492,-0.10198 -11,-2.11603 c -6.05,-1.16382 -17.75,-2.81268 -26,-3.66414 -23.76539,-2.45275 -30.64127,-3.40129 -46.81578,-6.45833 -32.10432,-6.06784 -46.21685,-10.78414 -62.51311,-20.8914 -11.08627,-6.87592 -50.15257,-34.84487 -62.60676,-44.8224 -11.3575,-9.09893 -12.53478,-10.45674 -17.97578,-20.73239 l -3.64757,-6.88866 1.68449,-1.86134 1.68449,-1.86134 h 2.73422 2.73423 l 2.36079,-1.91392 2.36078,-1.91392 -0.78586,-0.78861 c -0.90609,-0.90925 -6.0321,-0.88347 -13.21414,0.0665 l -5,0.66132 -3.18154,-1.99933 c -7.38973,-4.64384 -21.33362,-24.22268 -30.34793,-42.612 l -5.88231,-12 -3.91385,-11.5 C 175.14133,490.35736 168.52319,455.92996 166.32221,420.92819 l -0.97467,-15.5 0.59194,-13.5 c 0.73811,-16.83344 2.603,-33.19759 6.49584,-57 5.64722,-34.52947 10.02159,-45.66462 36.73076,-93.5 9.37847,-16.79657 25.3435,-43.79821 29.8036,-50.40681 2.58144,-3.82494 42.64334,-44.46296 49.0046,-49.70931 l 4.10299,-3.38388 h 1.60847 1.60846 l 1.04572,3.88351 c 0.57515,2.13593 1.67445,4.40531 2.44289,5.04306 l 1.39717,1.15955 2.6872,-0.67444 c 1.47795,-0.37095 6.5835,-2.22282 11.34565,-4.11527 4.76215,-1.89245 18.50232,-7.00833 30.5337,-11.36862 l 21.87524,-7.92779 h 5.37476 5.37476 v 0.88499 c 0,1.38757 -4.00367,3.64406 -9.95187,5.60893 -5.11768,1.69052 -19.59267,7.37831 -32.04813,12.59297 -15.43293,6.46121 -45.30772,22.75656 -68.37744,37.2968 l -12.87743,8.11631 -1.86883,3 -1.86882,3 -0.004,2.25 -0.004,2.25 h 1.04624 c 0.57543,0 4.28793,-1.51567 8.25,-3.36815 33.53854,-15.6811 61.1671,-28.35171 77.20376,-35.40608 l 16,-7.03825 8.1537,-0.65408 8.1537,-0.65409 0.53032,0.85807 c 1.4009,2.26671 -0.49477,3.22007 -22.33772,11.23402 -24.67073,9.05142 -59.31794,25.27594 -76.14807,35.65844 -11.72127,7.23085 -28.51727,19.34197 -31.97248,23.05445 -3.0229,3.24798 -6.38668,8.31567 -5.51969,8.31567 0.32438,0 7.23863,-3.21031 15.36501,-7.13403 56.06387,-27.06973 65.6232,-30.75624 95.6845,-36.90023 l 14.90928,-3.04719 0.94762,0.94762 0.94763,0.94763 -2.50078,1.63858 c -1.37543,0.90122 -13.01104,5.47821 -25.8569,10.1711 -22.60011,8.25633 -36.76911,13.47485 -51.34006,18.9088 -15.02201,5.60217 -24.05887,11.71252 -30.5264,20.64069 l -2.98914,4.12711 v 3.34996 3.34996 h 3.58026 3.58025 l 13.16975,-5.55475 c 7.24336,-3.05511 14.51974,-6.16519 16.16974,-6.91129 1.65,-0.7461 10.16734,-4.33386 18.92743,-7.9728 l 15.92743,-6.61624 9.75379,-2.47246 c 5.36459,-1.35985 10.68474,-2.47246 11.82257,-2.47246 h 2.06878 v 1.37686 1.37685 l -4.84156,2.08278 c -2.66285,1.14553 -9.77039,3.841 -15.79452,5.98993 -37.37965,13.33406 -80.73586,35.79178 -94.61392,49.00824 -8.36353,7.96483 -1.66785,8.9158 11.60266,1.64791 7.49114,-4.10269 20.40047,-9.69753 31.14734,-13.49912 10.51465,-3.71944 49.93551,-15.98345 51.37645,-15.98345 h 1.12355 v 1.36667 1.36668 l -5.25,2.23028 c -2.8875,1.22666 -12.225,5.06436 -20.75,8.52822 -39.98144,16.24519 -43.57868,18.15823 -53.25,28.3188 l -5.75,6.04088 v 3.07423 3.07424 h 4.41339 4.4134 l 12.8366,-4.86118 c 24.86565,-9.41653 34.8753,-12.93542 38.67174,-13.59504 l 3.83512,-0.66635 -0.33512,1.81129 -0.33513,1.81128 -12.5,4.07564 c -15.56844,5.0761 -26.24735,10.06325 -43.86003,20.48303 l -13.7683,8.14542 -3.27434,4.79831 -3.27435,4.79831 1.12369,2.09965 1.1237,2.09964 h 1.2905 c 0.70978,0 2.32357,-1.09965 3.5862,-2.44366 3.44096,-3.66273 7.67835,-5.31067 19.54281,-7.60027 5.91446,-1.14137 13.06129,-2.93442 15.88184,-3.98456 10.94822,-4.07618 35.99424,-10.91543 40.09257,-10.94797 l 2.96428,-0.0235 -1.46428,1.34218 c -0.80536,0.73819 -5.96429,3.05768 -11.46429,5.15441 -14.82396,5.65124 -34.73813,13.13113 -45.5,17.09009 -5.225,1.92211 -10.51421,4.26716 -11.75381,5.21121 l -2.2538,1.71646 -2.00085,5.2658 -2.00085,5.26581 2.75465,1.06407 2.75466,1.06407 4,-0.45828 4,-0.45828 15.5,-5.66987 c 14.43057,-5.27868 32.09306,-10.50224 60,-17.74461 6.325,-1.64145 17.27108,-4.75265 24.32463,-6.91376 7.05354,-2.16116 13.95354,-3.92934 15.33333,-3.92934 h 2.50871 l -0.38837,1.25 -0.38837,1.25 -8.44497,2.67646 c -4.64473,1.47206 -13.61996,4.08443 -19.94496,5.80529 -21.0185,5.71854 -25.37019,7.08533 -43.5,13.66258 -9.9,3.59159 -20.025,7.11683 -22.5,7.83386 -2.475,0.71703 -7.40823,2.36527 -10.96274,3.66275 l -6.46274,2.35906 -2.33288,3.46558 -2.33288,3.46558 0.29562,2.53442 0.29562,2.53442 4,1.23462 c 2.2,0.67904 6.25,1.5134 9,1.85414 l 5,0.61953 -10.49366,5.14586 -10.49366,5.14585 -2.23989,4 c -1.23194,2.2 -2.24729,4.36046 -2.25634,4.80103 -0.009,0.44056 1.67105,1.50692 3.73355,2.36969 l 3.75,1.56867 6,-0.5595 c 8.07834,-0.75331 33.01024,-5.93006 49.12962,-10.20106 l 13.12962,-3.47883 h 3.62038 3.62038 v 0.75589 c 0,1.56247 -6.59492,3.47328 -45.52475,13.19031 l -39.97525,9.97798 -2.25,2.59367 -2.25,2.59368 v 1.88847 1.88847 l 2.36498,2.74945 2.36498,2.74946 8.38502,-1.2733 c 4.61176,-0.70032 12.88502,-2.12319 18.38502,-3.16194 21.29526,-4.02191 43.78002,-7.95093 45.35316,-7.92509 l 1.64684,0.0271 -7,3.04948 c -3.85,1.67721 -9.87821,4.1609 -13.39602,5.51931 l -6.39602,2.46984 -9.39511,1.41035 -9.39511,1.41035 -6.20887,3.11545 c -3.41488,1.71349 -6.77137,3.84397 -7.45887,4.7344 l -1.25,1.61897 v 2.76356 2.76355 l 3.43798,0.64497 3.43798,0.64497 19.81202,-3.15827 c 10.89661,-1.73705 23.44709,-3.80689 27.88995,-4.59966 4.44286,-0.7928 9.2538,-1.44142 10.69098,-1.44142 h 2.61306 l 0.59088,0.95607 0.59088,0.95607 -2.51163,1.64568 c -3.19401,2.0928 -4.68039,2.41365 -36.48303,7.87544 l -26.43093,4.53924 -2.81907,2.70084 c -1.55049,1.48546 -2.81907,3.21942 -2.81907,3.85324 v 1.15239 l 2.54705,1.16051 2.54706,1.16052 4.20294,-0.007 c 2.31162,-0.004 10.05295,-0.87889 17.20295,-1.94508 7.15,-1.0662 19.3666,-2.86674 27.14799,-4.00121 l 14.148,-2.06268 1.602,0.61475 c 0.88111,0.33811 1.60201,0.98427 1.60201,1.43591 0,1.24888 -9.89398,4.68245 -17.09457,5.93243 -3.52299,0.61157 -12.25543,2.26877 -19.40543,3.68267 l -13,2.57073 -4.71409,2.38816 -4.7141,2.38817 -0.99716,1.86321 -0.99716,1.86321 1.35224,1.84929 1.35223,1.84929 6.85902,0.38516 6.85902,0.38516 18.5953,-3.09631 18.5953,-3.09631 h 9.23803 9.23804 l -0.39478,1.25 -0.39478,1.25 -6.43855,2.13849 -6.43856,2.1385 -26,4.70702 -26,4.70702 -3.15774,1.47465 -3.15774,1.47464 -1.05397,2.67984 -1.05396,2.67984 -0.28406,15.84178 -0.28406,15.84179 2.35655,1.90821 c 3.17087,2.56762 3.758,2.42837 5.01953,-1.19045 l 1.0802,-3.09867 -1.03844,-1.94035 -1.03844,-1.94034 2.55607,-3.03771 2.55606,-3.03771 v -3.27405 c 0,-1.80073 -0.4829,-4.65931 -1.07312,-6.3524 l -1.07311,-3.07834 1.06544,-1.9908 1.06544,-1.99079 3.36363,-1.1101 3.36364,-1.1101 2.71149,1.03091 2.7115,1.03091 -2.07491,2.91395 -2.07492,2.91395 -0.60347,4.4028 -0.60347,4.40279 1.68236,1.68236 1.68236,1.68236 h 5.72853 c 3.15069,0 15.38105,-1.1211 27.17857,-2.49133 11.79752,-1.37023 23.02504,-2.48092 24.95004,-2.46819 l 3.5,0.0231 -1.71345,1.30171 -1.71345,1.30172 -10.28655,2.23162 c -5.6576,1.22739 -13.94099,3.32375 -18.40753,4.65856 l -8.12099,2.42694 -1.25146,1.50792 -1.25146,1.50792 1.15461,1.39122 1.15461,1.39122 3.21784,0.50716 3.21783,0.50716 8.5,-1.45261 c 13.94425,-2.38299 29.47703,-5.09706 47.5,-8.29975 19.84888,-3.52716 18.5,-3.40223 18.5,-1.71338 v 1.33102 l -2.25,1.16042 c -2.58512,1.33326 -20.14455,5.20672 -57.25,12.62886 l -26,5.20075 -0.31823,3.23929 -0.31823,3.23929 1.19067,1.43467 1.19068,1.43468 4.12755,0.008 c 2.27016,0.004 12.67756,-1.14742 23.12756,-2.55967 l 19,-2.56772 17,-3.62923 c 9.35,-1.99608 19.1375,-3.81266 21.75,-4.03685 l 4.75,-0.40761 v 1.14754 1.14754 l -3.25,1.3411 c -2.92565,1.20725 -32.46892,7.61659 -51.75,11.22703 -4.125,0.77241 -9.87801,2.34617 -12.78446,3.49724 l -5.28446,2.09284 -0.96356,1.80042 -0.96355,1.80043 1.56944,1.56944 1.56945,1.56945 h 3.34857 c 1.84171,0 8.44707,-1.09196 14.67857,-2.42657 17.6101,-3.77159 61.02236,-12.42773 64.03388,-12.76796 l 2.70388,-0.30547 0.29612,0.89041 0.29612,0.89041 -9.31494,3.36176 -9.31494,3.36176 -17.18506,3.44895 c -9.45178,1.89693 -23.26006,4.61939 -30.68506,6.04991 -7.425,1.43053 -14.31707,2.84223 -15.31571,3.13712 -2.13296,0.62985 -8.68429,6.19853 -8.68429,7.38171 0,0.44817 1.49481,1.73869 3.3218,2.86783 l 3.32179,2.05299 7.42821,-0.88743 c 4.08551,-0.48809 19.02833,-2.29398 33.20627,-4.01309 l 25.77807,-3.12567 0.97193,0.60069 c 0.53456,0.33091 0.97193,0.95386 0.97193,1.38488 v 0.78367 l -12.75,2.6094 c -7.0125,1.43517 -21.75,4.01151 -32.75,5.72521 -11,1.7137 -23.825,3.79013 -28.5,4.61428 l -8.5,1.49847 -2.25,1.45669 -2.25,1.45669 v 1.94176 1.94176 l 2.15598,1.15385 2.15597,1.15384 18.09403,-0.52396 18.09402,-0.52397 22.5,-3.12126 c 12.375,-1.7167 24.6375,-3.39699 27.25,-3.73399 l 4.75,-0.61272 v 0.89874 c 0,1.92096 -4.63904,3.56651 -19.33587,6.85877 -8.39825,1.8813 -16.59582,3.93388 -18.21683,4.56128 l -2.9473,1.14074 -9.8283,0.55925 -9.8283,0.55926 -1.47398,1.47398 -1.47399,1.47398 0.64337,3.12629 c 0.35386,1.71946 1.68481,5.45017 2.95767,8.29047 l 2.3143,5.16418 2.21128,1.18344 2.21128,1.18344 1.47179,-1.47179 1.47179,-1.47179 0.0713,-4.71887 0.0713,-4.71887 3.09021,0.6177 3.09021,0.6177 3.75071,4.1025 3.75072,4.1025 5.24928,-0.79743 c 5.88812,-0.89448 22.50601,-1.03351 23.34421,-0.1953 0.29901,0.29901 -0.005,1.4215 -0.67462,2.49442 l -1.21828,1.95077 -7.52632,2.26059 -7.52632,2.26058 -3.42489,-1.05112 -3.42489,-1.05113 -2.3998,0.9124 -2.3998,0.9124 v 1.87553 c 0,1.03154 0.49402,3.29267 1.09783,5.02475 l 1.09782,3.14922 h 2.76732 2.76731 l 2.48852,-1.95747 2.48852,-1.95746 2.83343,2.95746 c 1.55846,1.62661 3.40141,2.95747 4.09552,2.95747 h 1.26202 l 2.76044,-3.75 c 1.51824,-2.0625 2.93148,-3.975 3.14053,-4.25 0.20904,-0.275 1.46251,0.85 2.78548,2.5 l 2.4054,3 0.005,3.02749 0.005,3.0275 1.5567,2.2225 1.55671,2.22251 h 5.38428 5.38428 l 0.80901,1.23797 c 0.44496,0.68088 2.62124,6.86457 4.83618,13.74154 l 4.02716,12.50356 1.57266,0.30287 1.57266,0.30286 2.19895,-6.03083 2.19895,-6.03082 4.28909,-2.51358 4.28909,-2.51357 h 3.96214 3.96214 l 1.2,1.2 c 0.66,0.66 1.2,1.84821 1.2,2.64047 0,0.79226 1.01165,3.46611 2.24812,5.94189 l 2.24812,4.50143 4.24461,1.81945 c 14.39294,6.16953 32.18358,11.10216 44.76453,12.4114 l 6.00538,0.62495 8.99462,-1.18543 8.99462,-1.18542 6.03542,-2.25879 c 10.64129,-3.98256 16.64582,-7.51878 31.64191,-18.63472 l 14.67732,-10.87966 7.32268,-3.91344 c 4.02747,-2.15239 9.23517,-4.47262 11.57267,-5.15607 2.3375,-0.68345 4.25,-1.60985 4.25,-2.05867 0,-0.44882 -1.40171,-1.54088 -3.1149,-2.42681 l -3.1149,-1.61078 0.8649,-0.80813 c 0.47569,-0.44447 8.05449,-4.00826 16.84176,-7.91954 l 15.97686,-7.11141 1.81209,-1.81208 1.81208,-1.81209 -0.63251,-1.64829 -0.63251,-1.64829 -5.05345,-1.88511 -5.05345,-1.8851 0.89701,-0.54855 c 0.49336,-0.3017 2.85031,-1.07247 5.23766,-1.71283 l 4.34063,-1.16428 4.40663,-4.06188 4.40662,-4.06189 1.13598,-3.79155 1.13597,-3.79155 -2.13323,-3.45165 c -1.17335,-1.89841 -2.13331,-4.39427 -2.13331,-5.54635 v -2.09471 l 5.9649,-4.05069 c 3.2807,-2.22787 7.60609,-5.73214 9.61199,-7.78726 l 3.64709,-3.73657 2.28655,-5.145 2.28654,-5.145 3.65553,-2.484 c 7.15366,-4.86104 11.37374,-13.24668 14.17439,-28.1657 l 1.51312,-8.0603 4.07026,-9.5 4.07027,-9.5 0.76682,-13 c 0.68689,-11.64491 4.24875,-40.24714 5.57275,-44.75 l 0.51457,-1.75 h 1.55153 1.55153 l -0.79389,9.75 c -0.43664,5.3625 -0.82765,21.675 -0.86892,36.25 l -0.075,26.5 -1.14966,2 c -0.63232,1.1 -1.68857,5.6 -2.34723,10 l -1.19757,8 -0.90277,0.33333 c -0.49655,0.18334 -0.9028,1.16131 -0.9028,2.17328 v 1.83994 l -2.5,2.97108 c -1.375,1.6341 -2.5,3.43596 -2.5,4.00415 0,0.56818 -1.125,1.91798 -2.5,2.99956 -1.375,1.08158 -2.5,2.36873 -2.5,2.86035 0,0.49162 -1.33171,2.45186 -2.95936,4.35608 -1.62765,1.90423 -2.97765,4.02473 -3,4.71223 -0.0224,0.6875 -0.4418,1.25 -0.9321,1.25 h -0.89147 l -1.29199,6.5 -1.292,6.5 h -0.78515 -0.78516 l 0.58049,1.51273 0.58049,1.51274 -0.98148,1.23726 c -0.53982,0.6805 -1.28414,2.91722 -1.65405,4.9705 l -0.67255,3.73323 -3.75289,7.26677 c -3.9872,7.72048 -5.9344,11.11835 -7.8409,13.68235 -2.47526,3.32891 -21.7407,23.08442 -22.51178,23.08442 -0.87728,0 -5.55913,4.15697 -13.97314,12.40661 l -5.33696,5.2327 -3.96625,6.43035 c -2.18144,3.53669 -4.64645,7.78034 -5.47781,9.43034 l -1.51155,3 -14.27394,14.25 c -7.85067,7.8375 -14.73726,14.25 -15.30354,14.25 -0.56629,0 -3.828,2.05796 -7.24826,4.57325 -9.13345,6.71682 -16.91381,11.42675 -18.87591,11.42675 -0.94859,0 -1.98,0.41308 -2.29203,0.91794 -0.31202,0.50487 -4.16358,1.69497 -8.55901,2.64466 l -7.9917,1.72671 v 0.85534 c 0,0.47044 -0.58131,0.85535 -1.29179,0.85535 -0.71049,0 -3.29799,2.0596 -5.75,4.57688 l -4.45821,4.57688 -6.01848,2.83438 c -3.31017,1.5589 -7.69767,3.14939 -9.75,3.53441 -2.05234,0.38502 -3.73152,1.05836 -3.73152,1.49631 v 0.79628 l -9.75,1.65004 c -5.3625,0.90752 -10.54924,2.08526 -11.52608,2.61719 l -1.77609,0.96716 -17.22391,0.95614 c -9.47316,0.52588 -22.03486,0.96474 -27.9149,0.97524 l -10.69099,0.0191 -0.61803,1 c -0.33992,0.55 -1.37898,1.01252 -2.30902,1.02782 -0.93004,0.0153 -3.45864,1.3653 -5.61912,3 l -3.92814,2.97218 -7.57186,-0.19268 c -4.16452,-0.10597 -10.49686,-0.33777 -14.07186,-0.5151 z M 238.18245,668.53145 c -2.57886,-2.37453 -6.31741,-5.09014 -8.3079,-6.03469 l -3.61906,-1.71735 -1.4421,1.19683 c -3.20527,2.66014 -0.82992,5.6285 7.0579,8.8199 l 5,2.02299 3,0.0148 3,0.0148 -4.68884,-4.31733 z m 108.10246,-37.04576 c -2.73937,-4.02212 -2.72326,-4.01603 -5.3577,-2.02354 l -1.94408,1.47035 3.39917,3.50705 3.39916,3.50704 1.45853,-1.45853 1.45854,-1.45854 z m -216.38655,-47.6013 0.64511,-1.04381 -0.96727,-1.20619 c -0.53199,-0.66341 -6.93025,-13.1312 -14.21834,-27.7062 -7.2881,-14.575 -13.42407,-26.695 -13.63549,-26.93333 -0.21143,-0.23834 -0.85441,0.0367 -1.42885,0.6111 l -1.04444,1.04444 4.10475,10.3889 c 5.24706,13.28002 11.61788,25.95417 18.64142,37.08535 5.47743,8.68085 6.63276,9.81521 7.90311,7.75974 z m 102.16717,-20.39561 2.80576,-2.43941 -1.10358,-1.81059 c -0.60698,-0.99582 -2.27635,-2.22858 -3.70971,-2.73946 l -2.60613,-0.92887 -2.54029,1.15743 -2.54029,1.15743 v 1.79893 c 0,0.98942 0.70052,2.79907 1.5567,4.02144 l 1.55671,2.22251 h 1.88753 1.88753 z m 35.0524,-3.15549 1.71429,-3.59489 -1.92159,-1.40511 c -2.48138,-1.81442 -3.98675,-1.77586 -5.5792,0.14293 l -1.28476,1.54803 1.64613,3.45197 c 2.08956,4.38185 3.2824,4.35042 5.42513,-0.14293 z m -45.01765,-16.62208 1.22898,-0.99303 -1.07578,-2.01013 -1.07579,-2.01013 -3.6532,0.58472 -3.6532,0.58472 -1.75,2.1412 c -0.9625,1.17766 -1.75,2.58357 -1.75,3.12425 v 0.98306 l 5.25,-0.70581 c 2.8875,-0.3882 5.80304,-1.15268 6.47899,-1.69885 z m 42.10866,-2.19029 0.33766,-1.74154 -1.68366,-1.86041 -1.68365,-1.86042 -2.404,1.09533 c -3.06377,1.39595 -3.02187,2.14313 0.26513,4.72869 l 2.66913,2.09953 1.08087,-0.35982 c 0.59448,-0.1979 1.23281,-1.14351 1.41852,-2.10136 z m 20.64537,-0.57397 1.793,-1.98124 -1.30576,-1.57336 c -0.71818,-0.86534 -2.15905,-2.03001 -3.20194,-2.58815 l -1.89616,-1.0148 -1.43608,1.19184 c -1.8989,1.57595 -1.81686,3.86871 0.21891,6.11821 2.12524,2.34837 3.59969,2.30979 5.82803,-0.1525 z m -69.98964,-29.93751 1.99339,-0.77817 -3.3559,-1.73541 -3.35591,-1.7354 -5.16775,-0.53336 -5.16775,-0.53336 -1.3316,1.60449 -1.33161,1.60449 0.58049,1.51274 0.58049,1.51273 7.28139,-0.0703 c 4.00476,-0.0387 8.1784,-0.42046 9.27476,-0.84846 z m 33.71318,-9.60397 -0.44254,-5.33647 1.57428,-4.62027 1.57428,-4.62026 -0.95629,-2.51524 c -0.52596,-1.38338 -0.95629,-4.07059 -0.95629,-5.97158 v -3.45634 l 2.58862,-3.91167 2.58862,-3.91166 -0.65527,-2.06457 -0.65527,-2.06457 -2.51279,-0.63067 -2.51278,-0.63067 -5.67057,0.65839 -5.67056,0.65839 -7.43923,3.71996 c -4.09157,2.04597 -7.55575,4.16995 -7.69817,4.71995 l -0.25895,1 5.44818,3.90753 c 2.99649,2.14914 5.44817,4.40374 5.44817,5.01022 0,0.60648 -1.125,2.31595 -2.5,3.79882 -1.375,1.48288 -2.5,3.05652 -2.5,3.49699 v 0.80085 l 4.41456,-0.3511 4.41457,-0.35111 0.94764,1.8439 c 0.5212,1.01415 1.21988,4.58111 1.55261,7.92658 0.77063,7.74824 1.13676,8.62611 4.44423,10.65602 l 2.72639,1.67328 1.57455,-2.04912 1.57455,-2.04912 z m -146.20696,-12.2863 c -2.3e-4,-1.48004 -1.852,-15.06598 -4.11506,-30.19098 l -4.11465,-27.5 -0.50714,-21.22974 -0.50714,-21.22974 1.16576,-11.27026 c 1.85397,-17.92366 6.24045,-38.30331 12.64962,-58.77026 1.46397,-4.675 3.54683,-11.57506 4.62859,-15.33346 l 1.96684,-6.83346 -0.63118,-0.63117 -0.63117,-0.63117 -1.70203,1.07182 -1.70204,1.07183 -4.23413,7.8928 c -2.32877,4.34105 -5.40034,10.9165 -6.8257,14.61213 l -2.59157,6.71932 -1.35686,7.78068 c -0.74628,4.27937 -2.51221,17.46407 -3.9243,29.29932 l -2.56744,21.51864 0.003,13.48136 0.004,13.48136 1.51529,16 c 2.00975,21.22102 5.28325,47.07862 6.55591,51.78568 0.56296,2.08212 1.89704,5.82343 2.96463,8.31402 l 1.94107,4.52834 1.00809,-0.62304 1.0081,-0.62303 -4e-4,-2.69099 z m 114.0004,-35.19098 c 2.36769,-2.36769 2.44172,-3.01366 0.6294,-5.49215 l -1.3706,-1.87441 -7.04082,1.25827 -7.04082,1.25826 -1.78109,1.30237 -1.78108,1.30236 3.9425,2.07845 3.94251,2.07846 4.25,0.0442 4.25,0.0442 2,-2 z m 18.74857,-1.53645 2.19358,-1.53644 1.90866,-6.21356 c 1.04976,-3.41745 2.23326,-8.16113 2.63,-10.54151 l 0.72133,-4.32797 -2.27538,-2.42203 -2.27539,-2.42204 h -1.80263 -1.80263 l -1.6512,2.52004 -1.65119,2.52004 -1.33673,6.22996 c -0.7352,3.42648 -1.35254,7.81733 -1.37186,9.75745 l -0.0351,3.5275 1.5567,2.2225 c 1.84692,2.63684 2.3179,2.69908 5.19187,0.68606 z m -10.63289,-38.35614 2.33725,-1.89259 -1.39545,-2.60741 c -1.62432,-3.03507 -2.7091,-3.23266 -5.22874,-0.95242 -2.10469,1.90471 -2.36127,4.41248 -0.62874,6.14501 1.60625,1.60625 2.17584,1.526 4.91568,-0.69259 z m 6.81512,-21.00611 3.43081,-2.84491 -3.84756,-3.37819 c -2.11615,-1.85801 -4.20401,-3.3782 -4.63969,-3.3782 -0.91656,0 -5.87436,6.49376 -5.87436,7.69428 0,0.44315 0.9,1.70572 2,2.80572 l 2,2 1.75,-0.0269 1.75,-0.0269 z m -177.13168,-13.70043 -0.29912,-6.90087 -2.5089,-0.29316 -2.5089,-0.29315 -1.7411,2.94744 c -2.32991,3.94422 -2.28912,4.13864 1.89312,9.02465 l 3.63422,4.24577 0.91491,-0.9149 0.9149,-0.91491 z m 184.05833,-10.10262 5.37478,-3.70175 -2.67188,-2.29825 c -1.46953,-1.26404 -3.29166,-2.29825 -4.04916,-2.29825 h -1.37729 l -3.6884,4.5012 -3.68839,4.5012 1.24389,1.4988 c 1.8074,2.17779 2.88502,1.90974 8.85645,-2.20295 z m -19.18745,-56.07049 c 1.19351,-0.95027 3.13833,-3.61509 4.32182,-5.92184 l 2.15182,-4.19407 -0.32182,-2.72116 -0.32182,-2.72115 -5.69994,5.21982 -5.69994,5.21982 -0.63268,1.9934 -0.63268,1.9934 1.20507,1.45201 c 1.56376,1.88422 2.96131,1.80473 5.63017,-0.32023 z m -12.63107,-16.36528 1.93707,-2.63751 -1.55052,-1.28681 -1.55051,-1.28681 -4.44339,4.44339 -4.44339,4.44339 1.67364,2.38945 1.67364,2.38946 2.3832,-2.90852 c 1.31076,-1.59969 3.25488,-4.0954 4.32026,-5.54604 z m -93.79627,-29.61248 c 0.85396,-0.9625 7.06335,-10.975 13.79866,-22.25 13.46013,-22.53246 21.17347,-33.43713 34.74265,-49.11714 15.50252,-17.9141 42.02256,-42.48272 53.52009,-49.58193 l 4.80407,-2.9663 -1.52977,-1.2696 -1.52977,-1.26959 -4.65765,1.58702 -4.65764,1.58702 -7.00135,4.76526 -7.00135,4.76526 -11.96746,11.44819 c -31.4434,30.07906 -61.72595,71.80731 -69.66797,95.99992 -1.15234,3.51021 -2.09517,6.75788 -2.09517,7.21705 0,1.39037 1.59704,0.93965 3.24266,-0.91516 z m 109.55417,-1.83605 5.18952,-2.58605 1.94034,-2.72494 c 1.06718,-1.49872 2.24404,-3.935 2.61523,-5.41395 l 0.6749,-2.68901 h -1.91263 -1.91263 l -4.4919,2.84868 -4.49191,2.84868 -3.03607,3.90132 c -1.66983,2.14573 -3.36314,4.46382 -3.76289,5.15132 l -0.72682,1.25 h 2.36267 2.36267 z m 46.5909,-156.50821 c 6.28951,-2.94322 7.34374,-3.84093 6.04075,-5.14393 -0.46382,-0.46382 -13.03508,4.62498 -14.27862,5.77993 -0.37244,0.34592 0.74195,2.45826 1.29688,2.45826 0.18079,0 3.30424,-1.39242 6.94099,-3.09426 z m 35.36895,-16.304574 c 4.80883,-1.86936 13.80582,-5.313088 19.99332,-7.652732 l 11.25,-4.253898 v -0.878655 c 0,-0.48326 -0.6715,-1.136335 -1.49223,-1.451278 l -1.49223,-0.572623 -6.66861,1.161288 c -8.58448,1.494923 -16.62609,4.792517 -24.81251,10.174778 l -6.53442,4.29613 v 1.28791 c 0,1.71964 -0.21932,1.7671 9.75668,-2.11092 z m 204.94402,574.831854 -2.65008,-2.858 2.149,-2.28751 c 2.59726,-2.76465 3.88208,-2.85169 6.83217,-0.46285 l 2.25335,1.82465 -2.96718,3.32086 -2.96718,3.32085 z m -6.2007,-27.06296 c -1.1,-0.28702 -3.66704,-0.94954 -5.70453,-1.47226 l -3.70453,-0.9504 -3.08932,-2.59949 -3.08932,-2.59949 -1.99397,-3.90851 c -1.09668,-2.14968 -1.76512,-4.27878 -1.48542,-4.73135 0.53084,-0.85892 8.61691,-2.604 16.90047,-3.64733 2.65835,-0.33483 6.65243,-1.25058 8.87572,-2.03501 2.2233,-0.78442 5.67328,-1.42307 7.66663,-1.41921 4.10175,0.008 18.41669,3.25784 22.45558,5.09809 l 2.66869,1.21593 v 1.90523 c 0,3.19538 -1.71994,5.38699 -6.71861,8.5611 l -4.78139,3.03613 -5.39282,1.57676 -5.39281,1.57677 -7.60719,0.45745 c -4.18395,0.2516 -8.50718,0.22261 -9.60718,-0.0644 z m 31.20848,-40.33595 c -2.63534,-1.02979 -6.46448,-2.15499 -8.50921,-2.50044 l -3.71767,-0.6281 -6.4908,2.03431 -6.4908,2.03432 -6.16091,0.0129 -6.1609,0.0129 -6.3391,-2.13768 -6.33909,-2.13768 -20.23841,-0.19684 -20.2384,-0.19684 -2.0116,-1.82047 -2.01159,-1.82047 v -2.41483 -2.41484 l 2.93444,-4.18017 c 1.61394,-2.2991 4.03179,-5.42117 5.37301,-6.93793 l 2.43857,-2.75775 2.9588,-1.03144 2.9588,-1.03145 2.66052,1.01153 c 1.46328,0.55634 4.60371,2.8027 6.97872,4.99191 2.37501,2.18921 5.5879,4.46312 7.13976,5.05313 l 2.82154,1.07275 2.11792,-0.57475 c 1.16486,-0.31611 4.89835,-2.0091 8.29665,-3.76219 l 6.17872,-3.18744 5.97527,6.3776 5.97526,6.3776 4.60197,-0.51871 4.60196,-0.51871 7.78816,-5.11308 7.78817,-5.11307 4.45588,-0.60749 4.45588,-0.6075 6.21845,2.09841 c 3.42015,1.15412 7.52828,2.0984 9.12916,2.0984 h 2.9107 l 5.67915,-2.6 5.67915,-2.6 h 3.29334 3.29334 l 3.79843,1.94871 3.79842,1.94871 -4.65493,3.20267 c -2.56021,1.76147 -10.34005,6.77955 -17.28853,11.15129 l -12.63361,7.94862 -4.11153,-0.0468 -4.11154,-0.0468 -4.79152,-1.87234 z m -22.20476,-43.40773 -1.87854,-1.37363 1.24835,-5.57824 1.24836,-5.57824 -1.02052,-1.90686 -1.02052,-1.90685 -4.29042,-1.15278 c -2.35974,-0.63403 -7.97658,-1.5447 -12.48187,-2.02373 l -8.19145,-0.87094 -4.48005,-2.16876 -4.48005,-2.16875 -3.4309,-4.1988 c -1.88699,-2.30934 -4.1176,-5.5488 -4.95689,-7.1988 -1.668,-3.27917 -3.76922,-12.19503 -3.76922,-15.99346 v -2.39501 l 2.32494,-2.70291 2.32495,-2.70291 2.64147,6.39715 c 1.4528,3.51842 4.03052,10.08692 5.72826,14.59664 l 3.0868,8.1995 1.99519,0.63325 1.99519,0.63325 4.33724,-3.99793 c 2.38548,-2.19887 5.71232,-4.70901 7.39296,-5.57811 3.43936,-1.77856 18.93537,-5.58946 22.72806,-5.58946 h 2.47762 l 9.73366,4.5503 c 5.35351,2.50266 11.70448,4.99264 14.11327,5.53328 l 4.3796,0.98298 5.1204,-1.50242 c 2.81621,-0.82634 6.77752,-2.6369 8.8029,-4.02347 l 3.68251,-2.52105 3.04878,-6.25981 3.04879,-6.25981 0.67038,-14.75 0.67039,-14.75 h 1.21143 1.21143 l 1.73636,5.52033 c 0.95499,3.03618 2.11795,8.54868 2.58435,12.25 l 0.848,6.72967 -0.93928,6.71772 c -1.13758,8.13602 -3.7104,15.16663 -7.99165,21.83839 l -3.20443,4.99366 -6.06443,5.48799 -6.06443,5.488 -9.526,5.68437 c -5.2393,3.1264 -12.01871,6.70992 -15.06536,7.96338 l -5.53935,2.27902 -7.05887,0.0237 -7.05887,0.0237 -1.87854,-1.37362 z M 294.62129,492.28433 c -1.2375,-0.27238 -2.25,-0.90137 -2.25,-1.39776 v -0.90251 l 5.25,-1.46843 5.25,-1.46842 8.75014,-0.30951 8.75015,-0.30951 -1.5e-4,0.62686 c -7e-5,0.34477 -2.28962,1.61176 -5.08787,2.81553 l -5.08772,2.18868 -6.66228,0.36015 c -3.66425,0.19809 -7.67477,0.1373 -8.91227,-0.13508 z M 570.0479,455.17819 c -1.65021,-2.80382 -2.95438,-45.30556 -1.43677,-46.82317 0.29643,-0.29643 0.85923,3.64877 1.25067,8.7671 0.39144,5.11834 1.29778,15.60607 2.01409,23.30607 1.28519,13.81527 1.23035,15.5 -0.5046,15.5 -0.48508,0 -1.0806,-0.3375 -1.32339,-0.75 z m -59.65393,-20.22732 -1.97732,-1.97732 0.66375,-1.77268 c 0.36506,-0.97497 1.47817,-3.12268 2.47358,-4.77268 l 1.80983,-3 0.004,-3.85377 0.004,-3.85376 -3.61203,-6.87372 -3.61204,-6.87371 0.50657,-3.27252 c 0.27861,-1.79989 1.17988,-5.05128 2.00283,-7.22531 0.82294,-2.17404 1.30364,-4.42404 1.06821,-5 -0.23543,-0.57597 -4.12379,-3.29721 -8.6408,-6.04721 l -8.21274,-5 -6.18888,0.0183 -6.18888,0.0183 -2.41351,2.26738 -2.41351,2.26738 -1.19272,3.98093 -1.19272,3.98094 -2.96664,3.37882 -2.96664,3.37881 -4.47735,2.10461 -4.47735,2.1046 -4.2609,-0.004 -4.2609,-0.004 -3.20966,-1.95703 -3.20967,-1.95703 -1.90501,-3.78923 c -1.04775,-2.08408 -2.43285,-5.42232 -3.07798,-7.41831 -0.64513,-1.996 -2.04184,-4.4154 -3.10379,-5.37645 l -1.93081,-1.74736 -5.78154,0.62878 c -3.17985,0.34583 -8.81904,0.9132 -12.53154,1.26081 l -6.75,0.63203 v -1.16955 c 0,-0.64325 0.71225,-2.25658 1.58277,-3.58517 l 1.58278,-2.41562 9.43827,-6.11415 c 11.4599,-7.42378 17.98252,-10.46061 25.927,-12.07121 l 6.03082,-1.22264 11.86587,2.21136 11.86587,2.21136 6.36948,2.88807 6.36949,2.88806 5.8164,5.5479 5.8164,5.5479 8.41742,2.09403 c 4.62959,1.15172 8.88662,2.48274 9.46009,2.95784 l 1.04265,0.86382 -0.0427,26.13621 -0.0427,26.1362 -2.80576,2.41343 c -3.40121,2.92561 -4.13415,2.97352 -6.67156,0.43611 z m -73.52268,-10.57352 c -5.5,-3.55008 -12.33288,-7.89086 -15.18417,-9.64618 l -5.18417,-3.19149 -0.47221,-1.80575 -0.47221,-1.80574 h 0.9219 c 0.50705,0 4.46637,1.80599 8.79849,4.01332 l 7.87658,4.01331 7.76786,1.98669 c 4.27232,1.09267 8.63894,1.98668 9.7036,1.98668 1.06466,0 3.24268,0.77202 4.84004,1.71561 l 2.90429,1.71561 v 1.19549 c 0,0.65753 -1.38453,2.3605 -3.07673,3.7844 l -3.07672,2.58889 -2.67328,-0.0481 -2.67327,-0.0481 -10,-6.45469 z m 184.75,-11.56421 c -5.08165,-3.25437 -4.85173,-3.53951 5.91888,-7.34067 l 4.66889,-1.64774 1.66102,-2.53503 1.66102,-2.53504 -0.59903,-0.59902 c -0.32946,-0.32947 -3.31671,-0.91947 -6.63832,-1.31112 l -6.0393,-0.71209 -2.04966,-1.85212 c -1.12732,-1.01867 -3.12543,-3.97346 -4.44024,-6.56621 L 613.37399,383 l -2.16664,-1.15955 -2.16663,-1.15955 -6.08472,0.57719 c -3.34659,0.31746 -11.70971,1.2409 -18.58471,2.0521 l -12.5,1.47491 -0.67865,-0.67846 -0.67865,-0.67845 0.93484,-4.94481 0.93484,-4.94481 1.24381,-0.84894 1.24381,-0.84894 6,0.403 6,0.40301 9.80367,-3.92097 c 5.39202,-2.15654 13.47993,-4.85062 17.97313,-5.98686 l 8.16945,-2.06588 7.61554,0.52198 7.61554,0.52198 5.91134,2.78055 5.91133,2.78055 8.83768,8.68673 8.83768,8.68672 -0.33768,2.38835 -0.33768,2.38834 -6.32559,-0.24473 -6.32559,-0.24473 -1.97108,1.05489 -1.97107,1.05489 -3.42546,7.21666 -3.42546,7.21665 -3.27788,3.07538 -3.27787,3.07539 -4.27024,1.6478 c -5.50616,2.12472 -7.03397,2.0597 -10.97976,-0.46725 z m -131.25,-21.31686 v -1.4319 l 3.07915,-2.19255 3.07915,-2.19255 2.55702,1.16506 2.55702,1.16506 -2.31049,2.45939 -2.31048,2.4594 h -3.32568 -3.32569 z m 207.36508,-10.31809 c -0.37016,-1.5125 -0.96273,-2.975 -1.3168,-3.25 -0.82074,-0.63744 -5.7561,-27.57024 -6.50528,-35.5 -0.31177,-3.3 -1.00421,-15.225 -1.53876,-26.5 -0.53454,-11.275 -1.26405,-23.86729 -1.62112,-27.98287 l -0.64922,-7.48287 1.61593,1.34111 1.61593,1.34111 1.01155,3.64176 1.01154,3.64176 0.006,9.69098 0.006,9.69099 1,0.61803 1,0.61803 v 12.39177 12.39176 l 1.06514,5.29922 c 1.10301,5.48761 1.9844,7.86013 6.04,16.25853 l 2.39486,4.95931 v 7.54069 7.54069 l -1.49411,3.25 c -1.82569,3.97124 -2.75987,4.09954 -3.64081,0.5 z m -413.77985,-16.1121 -0.56321,-0.91129 1.23899,-0.93605 c 0.68144,-0.51483 11.81399,-3.79973 24.73899,-7.29977 12.925,-3.50005 27.30974,-7.39758 31.96608,-8.66117 l 8.46608,-2.29746 0.96726,0.96726 c 0.53198,0.53198 0.77225,1.10059 0.53391,1.26357 -1.7296,1.18274 -10.29544,4.63512 -20.587,8.2974 l -12.15367,4.32491 -11.84633,2.44759 c -6.51548,1.34617 -14.17543,2.73305 -17.02211,3.08195 l -5.17578,0.63435 z m 209.41477,-8.21423 c -13.9416,-5.86916 -26.25903,-10.69959 -29.10493,-11.41387 l -2.49793,-0.62694 -9.71878,2.02953 -9.71879,2.02952 -2.97979,-0.59595 c -1.63888,-0.32778 -2.97978,-0.96419 -2.97978,-1.41426 0,-1.52549 4.4751,-3.98299 10.85534,-5.96121 l 6.35533,-1.97049 h 5.28933 5.28933 l 6.54483,2.02149 6.54483,2.0215 4.06051,-0.64931 c 2.23327,-0.35711 4.0605,-0.76183 4.0605,-0.89936 0,-0.13754 -0.71508,-1.99253 -1.58907,-4.1222 l -1.58908,-3.87212 -3.66092,-3.85589 c -4.61007,-4.85557 -9.28245,-7.84552 -15.66093,-10.02176 l -5,-1.70593 -11,-1.46337 c -6.05,-0.80485 -13.3345,-2.14048 -16.18778,-2.96806 -2.85328,-0.82758 -9.54032,-2.40025 -14.86008,-3.49484 l -9.6723,-1.99015 h -6.40334 -6.40334 l 1.56076,-3.75 1.56075,-3.75 4.0996,-4.18756 4.09959,-4.18756 7.12844,-3.61822 7.12844,-3.61821 5.97463,-0.8578 5.97463,-0.85781 17,1.42423 c 9.35,0.78332 21.45539,1.87151 26.90086,2.41819 l 9.90086,0.99396 10.59914,4.89405 c 5.82953,2.69173 12.73739,5.65217 15.35081,6.57874 l 4.75168,1.68468 1.49832,2.13916 c 2.06145,2.94313 1.87955,5.85597 -0.69684,11.15897 l -2.19517,4.51832 2.79235,2.91458 2.79234,2.91458 -0.60004,1.89054 -0.60003,1.89055 -4.90217,3.73844 c -2.69619,2.05614 -6.7449,5.73758 -8.99714,8.18096 l -4.09497,4.44252 v 1.63077 1.63077 l 4.74719,4.35867 4.74719,4.35867 -1.49719,1.42558 c -0.82346,0.78407 -2.39719,1.68155 -3.49719,1.99441 l -2,0.56882 z m 132.5,-5.00547 c -6.05,-1.02566 -13.1375,-2.16452 -15.75,-2.53081 -2.6125,-0.36628 -4.75,-0.98206 -4.75,-1.36839 0,-1.08871 7.89213,-3.19639 14.07189,-3.75806 l 5.57188,-0.50642 5.74427,1.66991 5.74426,1.6699 3.68385,3.42578 3.68385,3.42577 -3.5,-0.0814 c -1.925,-0.0448 -8.45,-0.92061 -14.5,-1.94626 z m -44.94242,-11.1682 c -1.03541,-3.40905 -2.4766,-10.84889 -3.09067,-15.95491 l -0.68609,-5.70492 3.47058,0.5632 3.47058,0.5632 4.38901,-1.95729 c 2.41396,-1.07651 6.86401,-3.97121 9.88901,-6.43266 7.61589,-6.19708 19.88239,-14.33184 24.57918,-16.30016 l 3.92082,-1.64312 6.13412,-0.004 6.13411,-0.004 6.64651,3.01367 6.64651,3.01367 1.5433,3.69363 1.54329,3.69364 -0.66795,4.85657 -0.66795,4.85658 -2.50742,1.97234 -2.50741,1.97234 -3.64856,0.55853 c -2.0067,0.30719 -8.32832,1.43937 -14.04804,2.51595 l -10.3995,1.95742 -7.1005,4.38886 c -10.5012,6.49085 -12.65248,7.42881 -22.0806,9.62716 -10.11705,2.35898 -10.46772,2.38313 -10.96233,0.75464 z m 100.35781,-69.5 c -0.5693,-1.5125 -3.88776,-9.725 -7.37434,-18.25 -3.48658,-8.525 -7.81287,-19.325 -9.61398,-24 -3.65841,-9.49587 -7.76897,-16.21518 -12.29373,-20.09589 l -3.02671,-2.59588 1.34804,-5.61928 1.34804,-5.61927 -1.26784,-1.52767 -1.26785,-1.52766 -3.63351,-0.92779 c -1.99843,-0.51029 -6.44682,-1.2328 -9.8853,-1.60557 -3.43849,-0.37278 -6.46691,-1.02584 -6.72982,-1.45124 l -0.47802,-0.77345 4.4817,-1.71158 4.4817,-1.71158 0.59226,-2.35973 0.59226,-2.35974 -0.63428,-1.02628 c -0.34885,-0.56445 -5.22871,-2.41385 -10.84414,-4.10977 -5.61543,-1.69593 -12.53868,-3.78568 -15.38499,-4.6439 l -5.17513,-1.5604 0.46641,-1.21544 0.46641,-1.21545 7.084,-1.0965 7.084,-1.0965 1.07471,-1.07471 1.07472,-1.07472 -0.97925,-0.97925 -0.97925,-0.97925 -11.97075,-2.13701 c -6.58391,-1.17536 -14.89575,-2.65743 -18.47075,-3.29349 l -6.5,-1.15647 0.21891,-0.97726 0.21891,-0.97727 2.78109,-0.27633 c 1.5296,-0.15198 6.38109,-0.96898 10.78109,-1.81556 l 8,-1.53923 1.35714,-1.3273 1.35715,-1.32729 -2.10715,-2.10715 -2.10714,-2.10714 h -3.92764 c -2.1602,0 -7.4477,-0.46015 -11.75,-1.02256 -14.4281,-1.88609 -15.02217,-2.37104 -7.32236,-5.97744 l 5,-2.34187 v -1.74961 -1.74961 l -2.75,-0.55423 c -1.5125,-0.30482 -6.90915,-1.25384 -11.99256,-2.10893 -5.08341,-0.85508 -10.25426,-1.92895 -11.49078,-2.38636 l -2.24822,-0.83167 5.42821,-2.75069 5.42821,-2.75068 5.75564,-0.5219 5.75563,-0.5219 5.30694,1.70824 5.30693,1.70825 3.69716,2.93014 c 2.03344,1.61158 4.84594,3.36691 6.25,3.90073 1.40406,0.53382 2.55284,1.43173 2.55284,1.99534 0,0.56361 0.58131,1.02475 1.29179,1.02475 1.62268,0 9.70821,8.15186 9.70821,9.78785 0,0.66668 0.42545,1.21215 0.94543,1.21215 0.51999,0 1.53249,1.10584 2.25,2.45743 2.44397,4.60373 10.18197,15.54257 10.99462,15.54257 0.44547,0 0.80995,0.48748 0.80995,1.08328 0,0.59581 4.05,5.70923 9,11.36316 4.95,5.65394 9,10.59346 9,10.97671 0,0.38326 1.575,2.75955 3.5,5.28064 1.925,2.5211 3.5,5.1941 3.5,5.94001 0,0.74591 0.40749,1.3562 0.90554,1.3562 0.79547,0 3.64631,5.55325 12.57742,24.5 1.29629,2.75 2.89107,6.575 3.54395,8.5 1.25179,3.69088 2.46923,6.63816 5.78303,14 1.11408,2.475 2.5566,6.525 3.2056,9 0.649,2.475 1.63052,5.04974 2.18115,5.72165 0.55063,0.67191 1.39109,2.92191 1.86769,5 l 0.86655,3.77835 -0.60314,5.25 -0.60315,5.25 h -1.38707 -1.38707 z"
       id="path22" />
  </g>
</svg>
